<?xml version="1.0" encoding="UTF-8"?>
<svg
  width="254px"
  height="254px"
  viewBox="449 273 192 163"
  xmlns="http://www.w3.org/2000/svg"
  xmlns:xlink="http://www.w3.org/1999/xlink"
  version="1.1">
  <style>
    :root {
    --md-sys-color-on-background-light: #1f1f1f;
    --md-sys-color-on-background-dark: #e3e3e3;
    --md-sys-color-on-background: var(--md-sys-color-on-background-light);

    }

    @media (prefers-color-scheme: dark) {
    :root {
    --md-sys-color-on-background: var(--md-sys-color-on-background-dark);
    }
    }
  </style>
  <g fill="var(--md-sys-color-on-background)">
    <path d="M631.646 425.393 C632.473 425.402 633.266 425.067 633.837 424.468 634.407 423.87 634.704 423.062 634.657 422.236 634.657 419.997 633.306 418.927 630.534 418.927 L626.055 418.927 626.055 430.651 627.74 430.651 627.74 425.54 629.81 425.54 629.857 425.602 633.069 430.651 634.871 430.651 631.415 425.426 Z M629.698 424.219 L627.745 424.219 627.745 420.256 630.22 420.256 C631.499 420.256 632.957 420.465 632.957 422.139 632.957 424.065 631.482 424.219 629.688 424.219 M587.707 410.701 L563.822 410.701 563.822 373.296 C563.822 364.376 563.662 352.894 551.399 352.894 538.958 352.894 537.055 362.612 537.055 372.647 L537.055 410.699 513.17 410.699 513.17 333.778 536.1 333.778 536.1 344.29 536.421 344.29 C541.096 336.296 549.79 331.521 559.044 331.865 583.253 331.865 587.717 347.788 587.717 368.504 Z M486.219 323.263 C480.613 323.264 475.558 319.888 473.412 314.709 471.265 309.53 472.45 303.568 476.414 299.603 480.377 295.638 486.339 294.451 491.519 296.596 496.698 298.74 500.076 303.794 500.077 309.4 500.077 317.058 493.872 323.263 486.216 323.263 M498.162 410.701 L474.251 410.701 474.251 333.778 498.162 333.778 Z M599.615 273.36 L462.249 273.36 C455.757 273.287 450.433 278.488 450.354 284.98 L450.354 422.915 C450.43 429.41 455.754 434.616 462.249 434.547 L599.615 434.547 C606.123 434.629 611.467 429.423 611.558 422.915 L611.558 284.97 C611.465 278.465 606.12 273.265 599.615 273.35"/>
    <path d="M629.902 413.705 C623.852 413.763 618.987 418.699 619.016 424.749 619.045 430.799 623.958 435.689 630.008 435.689 636.058 435.689 640.971 430.799 641 424.749 641.029 418.699 636.163 413.763 630.113 413.705 Z M629.902 434.43 C624.579 434.519 620.193 430.276 620.104 424.953 620.016 419.631 624.259 415.244 629.581 415.155 634.904 415.067 639.29 419.31 639.379 424.632 L639.379 424.794 C639.49 430.001 635.36 434.312 630.153 434.425 L629.904 434.425"/>
  </g>
</svg>
